<svg width="20" height="8" viewBox="0 0 20 8" fill="none" xmlns="http://www.w3.org/2000/svg">
<path d="M0.51 7V0.26H2.12V2.61C2.3 2.47667 2.52333 2.37 2.79 2.29C3.05667 2.20333 3.34333 2.16 3.65 2.16C4.28333 2.16 4.74667 2.31 5.04 2.61C5.34 2.91 5.49 3.37 5.49 3.99V7H3.88V4.1C3.88 3.82667 3.82333 3.63333 3.71 3.52C3.59667 3.40667 3.39333 3.35 3.1 3.35C2.92667 3.35 2.75 3.39 2.57 3.47C2.39 3.55 2.24 3.65 2.12 3.77V7H0.51ZM8.08727 7.1C7.52727 7.1 7.0906 6.94333 6.77727 6.63C6.46393 6.31 6.30727 5.84667 6.30727 5.24V2.26H7.91727V5.15C7.91727 5.41667 7.9806 5.61333 8.10727 5.74C8.2406 5.86 8.43727 5.92 8.69727 5.92C8.8906 5.92 9.07393 5.88 9.24727 5.8C9.4206 5.72 9.56393 5.62 9.67727 5.5V2.26H11.2873V7H9.78727L9.73727 6.6C9.54393 6.74667 9.3106 6.86667 9.03727 6.96C8.76393 7.05333 8.44727 7.1 8.08727 7.1ZM13.7669 7.1C13.2469 7.1 12.8735 6.98667 12.6469 6.76C12.4202 6.53333 12.3069 6.17 12.3069 5.67V0.26H13.9169V5.51C13.9169 5.66333 13.9469 5.77 14.0069 5.83C14.0735 5.88333 14.1702 5.91 14.2969 5.91C14.4769 5.91 14.6369 5.88667 14.7769 5.84V6.93C14.6235 6.99 14.4702 7.03333 14.3169 7.06C14.1702 7.08667 13.9869 7.1 13.7669 7.1ZM16.7591 7.1C16.1991 7.1 15.7625 6.94333 15.4491 6.63C15.1358 6.31 14.9791 5.84667 14.9791 5.24V2.26H16.5891V5.15C16.5891 5.41667 16.6525 5.61333 16.7791 5.74C16.9125 5.86 17.1091 5.92 17.3691 5.92C17.5625 5.92 17.7458 5.88 17.9191 5.8C18.0925 5.72 18.2358 5.62 18.3491 5.5V2.26H19.9591V7H18.4591L18.4091 6.6C18.2158 6.74667 17.9825 6.86667 17.7091 6.96C17.4358 7.05333 17.1191 7.1 16.7591 7.1Z" fill="#13FF1D"/>
</svg>
